<?xml version="1.0" encoding="iso-8859-1"?>
<!-- Generator: Adobe Illustrator 21.0.0, SVG Export Plug-In . SVG Version: 6.00 Build 0)  -->
<svg xmlns="http://www.w3.org/2000/svg" xmlns:xlink="http://www.w3.org/1999/xlink" version="1.1" id="Capa_1" x="0px" y="0px" viewBox="0 0 512 512" style="enable-background:new 0 0 512 512;" xml:space="preserve" width="512" height="512">
<g id="XMLID_2471_">
	<g id="XMLID_1977_">
		<g id="XMLID_1978_">
			<g id="XMLID_1979_">
				<g id="XMLID_1980_">
					<g id="XMLID_1981_">
						<g id="XMLID_1982_">
							<g id="XMLID_1983_">
								<g id="XMLID_1984_">
									<g id="XMLID_1985_">
										<g id="XMLID_1986_">
											<g id="XMLID_1987_">
												<g id="XMLID_1988_">
													<g id="XMLID_1989_">
														<circle id="XMLID_1991_" style="fill:#EDCFF4;" cx="256" cy="256" r="256"/>
													</g>
												</g>
											</g>
										</g>
									</g>
								</g>
							</g>
						</g>
					</g>
				</g>
			</g>
		</g>
	</g>
	<g id="XMLID_2458_">
		<path id="XMLID_2489_" style="fill:#E1B5EC;" d="M511.969,258.494L315.862,62.379l-9.055-9.055l-9.033,9.05l-21.157-22.056    C271.583,34.606,264.214,31,256,31c-15.173,0-27.473,12.3-27.473,27.473c0,9.903,5.25,18.566,13.108,23.4    c0.333,0.542,0.683,1.071,1.051,1.587c-1.805,0.525-3.515,1.292-5.07,2.302L205.19,53.325l-12.136,12.149l35.616,35.692    l-11.264,54.839l15.381,15.828v15.404c-68.072,11.094-120.032,70.156-120.032,141.363c0,41.859,17.958,79.522,46.587,105.713    l76.938,76.938C242.788,511.747,249.365,512,256,512C396.551,512,510.628,398.728,511.969,258.494z"/>
		<g id="XMLID_2335_">
			<path id="XMLID_1433_" style="fill:#FFFFFF;" d="M318.945,65.475l-12.138-12.151L274.415,85.78     c-1.906-1.243-4.039-2.142-6.306-2.645c9.1-4.476,15.364-13.836,15.364-24.662C283.473,43.3,271.173,31,256,31     c-15.173,0-27.473,12.3-27.473,27.473c0,10.826,6.265,20.186,15.364,24.662c-2.268,0.504-4.401,1.402-6.307,2.646L205.19,53.325     l-12.136,12.149l35.616,35.692l-11.264,54.839h15.381v37.745h18.118v-37.745h10.191v37.745h18.117v-37.745h15.381l-11.265-54.841     L318.945,65.475z"/>
			<path id="XMLID_2288_" style="fill:#FFF5CB;" d="M283.33,101.16l11.26,54.85h-15.38v37.74H261.1v-37.74H256V31     c15.17,0,27.47,12.3,27.47,27.47c0,10.83-6.26,20.19-15.36,24.67c2.27,0.5,4.4,1.4,6.3,2.64l32.4-32.46l12.14,12.16     L283.33,101.16z"/>
			<g id="XMLID_2142_">
				<g id="XMLID_2012_">
					<g id="XMLID_1901_">
						<circle id="XMLID_1902_" style="fill:#9331B2;" cx="255.999" cy="328.6" r="143.245"/>
					</g>
					<g id="XMLID_1898_">
						<g id="XMLID_1899_">
							<path id="XMLID_1900_" style="fill:#681F7B;" d="M399.246,328.605c0,73.302-55.062,133.75-126.088,142.212         c-5.626,0.686-11.344,1.029-17.153,1.029V185.352C335.115,185.352,399.246,249.494,399.246,328.605z"/>
						</g>
					</g>
				</g>
				<path id="XMLID_2136_" style="fill:#FF90C2;" d="M209.673,392.729h-48.102c-11.548,0-20.91-9.362-20.91-20.91v-2.163      c0-11.548,9.362-20.91,20.91-20.91h48.102c11.548,0,20.91,9.362,20.91,20.91v2.163      C230.583,383.367,221.222,392.729,209.673,392.729z"/>
				<path id="XMLID_2137_" style="fill:#FF53A1;" d="M311.809,331.951h-20.468c-10.805,0-19.565-8.759-19.565-19.565v-2.024      c0-10.805,8.76-19.565,19.565-19.565h20.468c10.805,0,19.565,8.759,19.565,19.565v2.024      C331.373,323.191,322.614,331.951,311.809,331.951z"/>
				<path id="XMLID_1417_" style="fill:#FF90C2;" d="M181.503,277.648L181.503,277.648c0-2.501-0.382-4.912-1.09-7.18h31.012      c13.291,0,24.066-10.775,24.066-24.066v0c0-13.291-10.775-24.066-24.066-24.066h-51.48      c-22.661,20.497-38.728,48.142-44.661,79.378h42.152C170.728,301.714,181.503,290.939,181.503,277.648z"/>
				<path id="XMLID_1415_" style="fill:#FF53A1;" d="M286.938,233.561L286.938,233.561c0,11.364,9.212,20.577,20.577,20.577h70.876      c-9.801-16.075-22.684-30.062-37.823-41.154h-33.053C296.151,212.984,286.938,222.196,286.938,233.561z"/>
				<path id="XMLID_1414_" style="fill:#FF53A1;" d="M397.767,349.177H349.83c-13.291,0-24.066,10.775-24.066,24.066l0,0      c0,2.501,0.382,4.912,1.09,7.18h-31.012c-13.291,0-24.066,10.775-24.066,24.066v0c0,13.291,10.775,24.066,24.066,24.066h26.019      c-1.958,3.15-3.107,6.854-3.107,10.835c0,5.793,2.403,11.019,6.256,14.758C363.543,432.922,391.25,394.476,397.767,349.177z"/>
			</g>
		</g>
	</g>
</g>















</svg>
