<svg height="512pt" viewBox="-44 0 512 512" width="512pt" xmlns="http://www.w3.org/2000/svg"><path d="m34 326.488281c2.628906 0 5.210938-1.058593 7.070312-2.921875 1.859376-1.867187 2.929688-4.4375 2.929688-7.078125 0-2.628906-1.070312-5.199219-2.929688-7.070312-1.859374-1.859375-4.441406-2.917969-7.070312-2.917969s-5.210938 1.058594-7.070312 2.917969c-1.859376 1.871093-2.929688 4.441406-2.929688 7.070312 0 2.640625 1.070312 5.210938 2.929688 7.078125 1.859374 1.863282 4.441406 2.921875 7.070312 2.921875zm0 0"/><path d="m399.988281 76h14c5.523438 0 10-4.480469 10-10v-56c0-5.523438-4.476562-10-10-10h-403.988281c-5.523438 0-10 4.476562-10 10v56c0 5.519531 4.476562 10 10 10h14v193.992188c0 5.523437 4.476562 10 10 10s10-4.476563 10-10v-193.992188h24v360h-24v-77.007812c0-5.523438-4.476562-10-10-10s-10 4.476562-10 10v77.007812h-14c-5.523438 0-10 4.480469-10 10v56c0 5.523438 4.476562 10 10 10h403.988281c5.523438 0 10-4.476562 10-10v-56c0-5.519531-4.476562-10-10-10h-14v-192.339844c0-5.523437-4.476562-10-10-10-5.519531 0-9.996093 4.476563-9.996093 10v192.339844h-24v-360h24v78.328125c0 5.523437 4.476562 10 9.996093 10 5.523438 0 10-4.476563 10-10zm-168.507812 192.082031 24.359375 18.164063c44.425781 33.125 73 83.722656 78.976562 138.328125l-105.164062-82.125c-9.90625-7.738281-23.742188-7.738281-33.648438 0l-106.972656 83.539062c5.632812-55.144531 34.308594-106.332031 79.121094-139.742187l24.359375-18.160156c3.796875-2.832032 6.0625-7.355469 6.066406-12.089844 0-4.738282-2.269531-9.257813-6.066406-12.089844l-24.359375-18.164062c-25.496094-19.007813-45.761719-43.777344-59.542969-71.746094h206.769531c-13.78125 27.96875-34.046875 52.738281-59.539062 71.746094l-24.359375 18.164062c-3.800781 2.832031-6.066407 7.351562-6.066407 12.089844 0 4.734375 2.265626 9.253906 6.066407 12.085937zm-122.765625 167.90625 99.597656-77.78125c2.660156-2.074219 6.371094-2.074219 9.03125 0l99.597656 77.78125zm215.207031-301.992187h-223.855469c-6.746094-18.503906-10.796875-38.046875-11.8125-57.996094h247.484375c-1.019531 19.949219-5.070312 39.492188-11.816406 57.996094zm-232.636719 30.332031c15.230469 30.363281 37.679688 57.140625 64.910156 77.445313l19.070313 14.21875-19.070313 14.222656c-27.230468 20.304687-49.675781 47.082031-64.910156 77.441406-1.140625 2.273438-2.226562 4.574219-3.285156 6.882812v-197.09375c1.058594 2.3125 2.144531 4.613282 3.285156 6.882813zm241.421875 183.328125c-15.234375-30.359375-37.679687-57.136719-64.914062-77.441406l-19.070313-14.222656 19.070313-14.21875c27.234375-20.304688 49.679687-47.082032 64.914062-77.445313 1.136719-2.269531 2.226563-4.570313 3.285157-6.882813v197.09375c-1.058594-2.308593-2.148438-4.609374-3.285157-6.882812zm71.28125 108.34375v36h-383.988281v-36zm-383.988281-400v-36h383.988281v36zm0 0"/><path d="m389.988281 190.382812c-2.628906 0-5.207031 1.066407-7.066406 2.929688-1.863281 1.859375-2.929687 4.4375-2.929687 7.070312 0 2.636719 1.066406 5.21875 2.929687 7.078126 1.859375 1.859374 4.4375 2.917968 7.066406 2.917968 2.632813 0 5.210938-1.058594 7.070313-2.917968 1.859375-1.871094 2.929687-4.441407 2.929687-7.078126 0-2.632812-1.070312-5.203124-2.929687-7.070312-1.859375-1.863281-4.4375-2.929688-7.070313-2.929688zm0 0"/><path d="m212.949219 278.992188c-5.523438 0-10 4.476562-10 10v18.320312c0 5.523438 4.476562 10 10 10 5.523437 0 10-4.476562 10-10v-18.320312c0-5.523438-4.476563-10-10-10zm0 0"/></svg>